<svg width="40" height="40" viewBox="0 0 40 40" fill="none" xmlns="http://www.w3.org/2000/svg">
<path fill-rule="evenodd" clip-rule="evenodd" d="M15.5501 16.4431L12 20.0004L15.5504 23.5508L16.2991 22.8021L13.4966 19.9996L16.2995 17.1911L15.5501 16.4431ZM21.745 26.8824V13.1176C21.745 12.5329 22.2191 12.0588 22.8039 12.0588H25.4509C26.0357 12.0588 26.5097 12.5329 26.5097 13.1176V26.8824C26.5097 27.4671 26.0357 27.9412 25.4509 27.9412H22.8039C22.2191 27.9412 21.745 27.4671 21.745 26.8824ZM22.8039 29C21.6343 29 20.6862 28.0519 20.6862 26.8824V13.1176C20.6862 11.9481 21.6343 11 22.8039 11H25.4509C26.6205 11 27.5686 11.9481 27.5686 13.1176V26.8824C27.5686 28.0519 26.6205 29 25.4509 29H22.8039Z" fill="#292929"/>
</svg>
