<svg width="40" height="40" viewBox="0 0 40 40" fill="none" xmlns="http://www.w3.org/2000/svg">
<path fill-rule="evenodd" clip-rule="evenodd" d="M10.6175 29.9245L10.2344 30.8482C10.4702 30.946 10.7288 31 11 31H11.9V30H11C10.8626 30 10.734 29.9728 10.6175 29.9245ZM28.1 30V31H29C29.2712 31 29.5298 30.946 29.7656 30.8482L29.3825 29.9245C29.266 29.9728 29.1374 30 29 30H28.1ZM30 11.9H31V11C31 10.7288 30.946 10.4702 30.8482 10.2344L29.9245 10.6175C29.9728 10.734 30 10.8626 30 11V11.9ZM11 9H11.9V10H11C10.8626 10 10.734 10.0272 10.6175 10.0755L10.2344 9.15176C10.4702 9.05397 10.7288 9 11 9ZM10 28.1H9V29C9 29.2712 9.05397 29.5298 9.15176 29.7656L10.0755 29.3825C10.0272 29.266 10 29.1374 10 29V28.1ZM10 26.3H9V24.5H10V26.3ZM10 22.7H9V20.9H10V22.7ZM10 19.1H9V17.3H10V19.1ZM10 15.5H9V13.7H10V15.5ZM10 11.9H9V11C9 10.7288 9.05397 10.4702 9.15176 10.2344L10.0755 10.6175C10.0272 10.734 10 10.8626 10 11V11.9ZM13.7 10V9H15.5V10H13.7ZM17.3 10V9H19.1V10H17.3ZM20.9 10V9H22.7V10H20.9ZM24.5 10V9H26.3V10H24.5ZM28.1 10V9H29C29.2712 9 29.5298 9.05397 29.7656 9.15176L29.3825 10.0755C29.266 10.0272 29.1374 10 29 10H28.1ZM30 13.7H31V15.5H30V13.7ZM30 17.3H31V19.1H30V17.3ZM30 20.9H31V22.7H30V20.9ZM30 24.5H31V26.3H30V24.5ZM30 28.1H31V29C31 29.2712 30.946 29.5298 30.8482 29.7656L29.9245 29.3825C29.9728 29.266 30 29.1374 30 29V28.1ZM26.3 30V31H24.5V30H26.3ZM22.7 30V31H20.9V30H22.7ZM19.1 30V31H17.3V30H19.1ZM15.5 30V31H13.7V30H15.5ZM21.5263 14H25.4737C26.3291 14 27 14.699 27 15.5333V18.4667C27 19.301 26.3291 20 25.4737 20H21.5263C20.6709 20 20 19.301 20 18.4667V15.5333C20 14.699 20.6709 14 21.5263 14ZM21.5263 15C21.2356 15 21 15.2388 21 15.5333V18.4667C21 18.7612 21.2356 19 21.5263 19H25.4737C25.7644 19 26 18.7612 26 18.4667V15.5333C26 15.2388 25.7644 15 25.4737 15H21.5263ZM14.5263 20H18.4737C19.3291 20 20 20.699 20 21.5333V24.4667C20 25.301 19.3291 26 18.4737 26H14.5263C13.6709 26 13 25.301 13 24.4667V21.5333C13 20.699 13.6709 20 14.5263 20ZM14.5263 21C14.2356 21 14 21.2388 14 21.5333V24.4667C14 24.7612 14.2356 25 14.5263 25H18.4737C18.7644 25 19 24.7612 19 24.4667V21.5333C19 21.2388 18.7644 21 18.4737 21H14.5263Z" fill="black"/>
</svg>
