<svg width="40" height="40" viewBox="0 0 40 40" fill="none" xmlns="http://www.w3.org/2000/svg">
<path fill-rule="evenodd" clip-rule="evenodd" d="M24.4499 23.5569L28 19.9996L24.4496 16.4492L23.7009 17.1979L26.5034 20.0004L23.7005 22.8089L24.4499 23.5569ZM18.255 13.1176V26.8824C18.255 27.4671 17.7809 27.9412 17.1961 27.9412H14.5491C13.9643 27.9412 13.4903 27.4671 13.4903 26.8824L13.4903 13.1176C13.4903 12.5329 13.9643 12.0588 14.5491 12.0588H17.1961C17.7809 12.0588 18.255 12.5329 18.255 13.1176ZM17.1961 11C18.3657 11 19.3138 11.9481 19.3138 13.1176V26.8824C19.3138 28.0519 18.3657 29 17.1961 29H14.5491C13.3795 29 12.4314 28.0519 12.4314 26.8824L12.4314 13.1176C12.4314 11.9481 13.3795 11 14.5491 11H17.1961Z" fill="#292929"/>
</svg>
