<svg width="40" height="40" viewBox="0 0 40 40" fill="none" xmlns="http://www.w3.org/2000/svg">
<path fill-rule="evenodd" clip-rule="evenodd" d="M16 13H11V12H16C17.3807 12 18.5 13.1193 18.5 14.5V17.708C19.2355 18.0294 19.7865 18.6943 19.95 19.5H27.7929L25.6464 17.3536L26.3536 16.6464L29.3536 19.6464L29.7071 20L29.3536 20.3536L26.3536 23.3536L25.6464 22.6464L27.7929 20.5H19.95C19.7865 21.3057 19.2355 21.9706 18.5 22.292V25.5C18.5 26.8807 17.3807 28 16 28H11V27H16C16.8284 27 17.5 26.3284 17.5 25.5V22.5C16.1193 22.5 15 21.3807 15 20C15 18.6193 16.1193 17.5 17.5 17.5V14.5C17.5 13.6716 16.8284 13 16 13ZM17.5 21.5C18.3284 21.5 19 20.8284 19 20C19 19.1716 18.3284 18.5 17.5 18.5C16.6716 18.5 16 19.1716 16 20C16 20.8284 16.6716 21.5 17.5 21.5Z" fill="#181818"/>
</svg>
